<svg xmlns="http://www.w3.org/2000/svg" width="1200" height="628" fill="none" viewBox="0 0 1200 628"><path fill="#fbfbfa" d="M0 0h1200v628H0z"/><path fill="#000" d="M757.942 352.218q-6.678-.07-11.798-3.598-5.085-3.53-7.957-9.756-2.871-6.228-2.872-14.323 0-8.06 3.01-14.185 3.01-6.158 8.2-9.618t11.728-3.459q4.497 0 8.026 1.66a17.4 17.4 0 0 1 6.055 4.602q2.525 2.94 4.082 6.884h4.013l2.872 13.977 6.642 26.709h-10.102l-6.227-26.709q-.52-2.594-1.523-5.5a26.7 26.7 0 0 0-2.594-5.501q-1.591-2.595-3.979-4.221-2.352-1.626-5.639-1.626-3.771 0-6.539 2.18-2.733 2.145-4.255 5.985-1.488 3.84-1.488 8.787t1.453 8.891q1.488 3.91 4.152 6.159 2.663 2.214 6.158 2.214 3.148 0 5.57-1.661 2.421-1.695 4.152-4.324a29 29 0 0 0 2.836-5.605q1.143-2.976 1.696-5.501l5.639-26.708h9.998l-5.95 26.708-2.872 13.908h-3.771q-1.522 3.944-4.082 7.058a18.1 18.1 0 0 1-6.158 4.843q-3.633 1.764-8.476 1.73m-49.392-54.246h12.247l-.104 37.676q.035 3.356 1.626 4.428 1.591 1.038 4.117 1.038 1.28 0 2.353-.139a27 27 0 0 0 1.764-.276v9.79q-1.522.52-3.598.865-2.041.381-4.532.381-6.262 0-10.068-3.425-3.805-3.426-3.805-11.521zm2.179-6.608L713.947 275h11.728l-7.3 16.364zm-44.372 60.684q-6.262 0-11.21-3.217-4.947-3.218-7.818-9.341-2.872-6.124-2.872-14.877 0-8.856 2.906-14.945 2.94-6.124 7.923-9.238 4.982-3.147 11.105-3.148 4.67 0 7.681 1.592 3.01 1.557 4.774 3.771 1.764 2.18 2.733 4.117h.519v-26.501h12.558v70.853H682.34v-8.372h-.761q-.969 1.938-2.802 4.117-1.834 2.145-4.844 3.667t-7.576 1.522m3.494-10.275q3.978 0 6.781-2.145 2.802-2.18 4.255-6.054t1.453-9.03q0-5.154-1.453-8.96-1.418-3.805-4.221-5.916-2.768-2.11-6.815-2.111-4.186 0-6.989 2.18t-4.22 6.02q-1.419 3.84-1.419 8.787 0 4.982 1.419 8.891 1.452 3.876 4.255 6.124 2.837 2.214 6.954 2.214m-59.307 10.376q-7.784 0-13.493-3.425-5.707-3.426-8.856-9.583-3.114-6.159-3.114-14.393t3.114-14.426q3.149-6.193 8.856-9.618 5.71-3.425 13.493-3.425 7.785 0 13.493 3.425t8.822 9.618q3.148 6.192 3.148 14.426t-3.148 14.393q-3.114 6.157-8.822 9.583-5.708 3.425-13.493 3.425m.069-10.033q4.221 0 7.058-2.318 2.837-2.353 4.221-6.297 1.418-3.943 1.418-8.787 0-4.878-1.418-8.822-1.385-3.98-4.221-6.331-2.837-2.353-7.058-2.353-4.325 0-7.196 2.353-2.837 2.352-4.255 6.331-1.384 3.944-1.384 8.822 0 4.844 1.384 8.787 1.418 3.944 4.255 6.297 2.871 2.318 7.196 2.318m-70.092-22.142v31.137h-12.524v-53.14h11.97V307h.623q1.834-4.463 5.847-7.092 4.047-2.63 9.998-2.629 5.501 0 9.584 2.352 4.116 2.354 6.365 6.816 2.284 4.463 2.249 10.829v33.835h-12.524v-31.898q0-5.328-2.768-8.338-2.733-3.01-7.576-3.01-3.287 0-5.847 1.453-2.526 1.419-3.979 4.117-1.418 2.699-1.418 6.539m-59.367 0v31.137H468.63v-53.14h11.97V307h.623q1.833-4.463 5.847-7.092 4.047-2.63 9.998-2.629 5.501 0 9.583 2.352 4.118 2.354 6.366 6.816 2.283 4.463 2.249 10.829v33.835h-12.524v-31.898q0-5.328-2.768-8.338-2.733-3.01-7.576-3.01-3.286 0-5.847 1.453-2.526 1.419-3.979 4.117-1.418 2.699-1.418 6.539M410 351.114v-70.853h46.082v10.759h-33.247v19.236h30.86v10.759h-30.86v19.34h33.524v10.759z"/></svg>