<svg xmlns="http://www.w3.org/2000/svg" width="512" height="512" viewBox="0 0 512 512"><defs><linearGradient id="bg-grad" x1="0%" x2="100%" y1="100%" y2="0%"><stop offset="0%" stop-color="color(display-p3 0 1 0.5)"/><stop offset="100%" stop-color="color(display-p3 1 0.98 0)"/></linearGradient><clipPath id="squircle"><path d="M328 0c64.406 0 96.61 0 121.209 12.534a115 115 0 0 1 50.257 50.257C512 87.391 512 119.594 512 184v144c0 64.406 0 96.61-12.534 121.209a115 115 0 0 1-50.257 50.257C424.609 512 392.406 512 328 512H184c-64.406 0-96.61 0-121.209-12.534a115 115 0 0 1-50.257-50.257C0 424.609 0 392.406 0 328V184c0-64.406 0-96.61 12.534-121.209a115 115 0 0 1 50.257-50.257C87.391 0 119.594 0 184 0Z"/></clipPath></defs><path fill="url(#bg-grad)" d="M0 0h512v512H0z" clip-path="url(#squircle)"/><svg width="380" height="380" x="66" y="66" fill="none" viewBox="0 0 100 100"><path fill="#000" d="M5 81.37V18h41.216v9.623H16.48v17.204h27.6v9.623h-27.6v17.297h29.983v9.623z"/><path fill="#000" d="M66.378 81.447q-5.971-.062-10.551-3.218-4.55-3.156-7.117-8.726t-2.568-12.81q0-7.21 2.692-12.686 2.691-5.508 7.333-8.602 4.64-3.095 10.49-3.095 4.022 0 7.178 1.486a15.6 15.6 0 0 1 5.415 4.115q2.259 2.63 3.651 6.158h3.59l2.568 12.5 5.94 23.888h-9.034l-5.57-23.888a38 38 0 0 0-1.361-4.92 24 24 0 0 0-2.321-4.92q-1.424-2.32-3.558-3.774Q71.05 41.5 68.11 41.5q-3.373 0-5.848 1.949-2.445 1.918-3.806 5.353-1.33 3.435-1.33 7.86t1.299 7.952q1.33 3.495 3.713 5.507 2.382 1.98 5.508 1.98 2.815 0 4.981-1.485 2.166-1.516 3.714-3.868a26 26 0 0 0 2.537-5.012q1.02-2.661 1.516-4.92l5.044-23.888h8.942l-5.32 23.889-2.57 12.439h-3.373q-1.362 3.527-3.651 6.312a16.2 16.2 0 0 1-5.508 4.332q-3.25 1.578-7.58 1.547"/></svg></svg>