<svg xmlns="http://www.w3.org/2000/svg" width="47" height="10" fill="none" viewBox="0 0 47 10"><path fill="#000" d="M42.857 9.511a2.55 2.55 0 0 1-1.453-.443q-.626-.434-.98-1.202-.354-.767-.354-1.764 0-.993.371-1.747.37-.758 1.01-1.185a2.55 2.55 0 0 1 1.445-.426q.553 0 .988.205.435.2.746.566.31.363.503.848h.494l.354 1.722.818 3.29h-1.244l-.767-3.29a5 5 0 0 0-.188-.678 3.3 3.3 0 0 0-.32-.677 1.7 1.7 0 0 0-.49-.52 1.2 1.2 0 0 0-.694-.2q-.465 0-.805.268-.337.264-.525.737a3 3 0 0 0-.183 1.083q0 .609.18 1.095.182.481.51.759.33.272.759.272.388 0 .686-.204.299-.21.511-.533.213-.328.35-.69a5 5 0 0 0 .209-.678l.694-3.29h1.232l-.733 3.29-.354 1.713h-.464a3.1 3.1 0 0 1-.503.87q-.311.378-.759.596a2.3 2.3 0 0 1-1.044.213M36.773 2.83h1.509l-.013 4.64q.005.414.2.546.196.127.508.127.157 0 .29-.017.131-.015.217-.034v1.206a3 3 0 0 1-.444.107 3 3 0 0 1-.558.047q-.77 0-1.24-.422-.469-.421-.469-1.42zm.269-.814L37.438 0h1.445l-.9 2.016zM31.576 9.49q-.771 0-1.38-.396-.61-.396-.963-1.15-.354-.755-.354-1.833 0-1.09.358-1.84.362-.755.976-1.139.613-.387 1.368-.387.574 0 .946.196.37.19.588.464.218.268.336.507h.064V.648h1.547v8.727h-1.517V8.344h-.094q-.12.24-.345.507a1.9 1.9 0 0 1-.596.452q-.372.187-.934.187m.43-1.265q.492 0 .836-.265.345-.268.524-.745a3.2 3.2 0 0 0 .18-1.112q0-.636-.18-1.104a1.57 1.57 0 0 0-.52-.729q-.34-.26-.84-.26-.515 0-.86.269-.346.269-.52.741a3.1 3.1 0 0 0-.175 1.083q0 .614.175 1.095.18.478.524.754.35.273.857.273m-7.305 1.278q-.96 0-1.662-.422a2.86 2.86 0 0 1-1.091-1.18q-.384-.759-.384-1.773 0-1.015.384-1.777a2.86 2.86 0 0 1 1.09-1.185q.705-.422 1.663-.422t1.662.422a2.83 2.83 0 0 1 1.086 1.185q.388.762.388 1.777T27.45 7.9q-.383.76-1.086 1.18-.703.423-1.662.423m.008-1.236q.52 0 .87-.286a1.7 1.7 0 0 0 .52-.775 3.2 3.2 0 0 0 .174-1.083q0-.6-.175-1.086a1.7 1.7 0 0 0-.52-.78q-.348-.29-.869-.29-.532 0-.886.29a1.75 1.75 0 0 0-.524.78q-.17.486-.17 1.086 0 .597.17 1.083.174.486.524.775.354.286.886.286M16.077 5.54v3.835h-1.543V2.829h1.475v1.113h.076q.225-.55.72-.874.499-.324 1.232-.324.678 0 1.18.29.507.29.785.84.281.549.277 1.333v4.168h-1.543v-3.93q0-.655-.341-1.026-.336-.37-.933-.37-.405 0-.72.178a1.24 1.24 0 0 0-.49.507q-.175.333-.175.806m-7.313 0v3.835H7.222V2.829h1.474v1.113h.077q.225-.55.72-.874.498-.324 1.232-.324.677 0 1.18.29.507.29.784.84.282.549.277 1.333v4.168h-1.543v-3.93q0-.655-.34-1.026-.337-.37-.934-.37-.405 0-.72.178a1.24 1.24 0 0 0-.49.507q-.175.333-.175.806M0 9.375V.648h5.676v1.325H1.581v2.37h3.801v1.325H1.581V8.05h4.13v1.325z"/></svg>